<?xml version="1.0" encoding="UTF-8" standalone="no"?>
<!-- Created with Inkscape (http://www.inkscape.org/) -->
<svg xmlns:svg="http://www.w3.org/2000/svg" xmlns="http://www.w3.org/2000/svg" xmlns:xlink="http://www.w3.org/1999/xlink" xmlns:inkscape="http://www.inkscape.org/namespaces/inkscape" version="1.0" width="48" height="48" id="svg1872">
  <defs id="defs1874">
    <linearGradient id="linearGradient4343">
      <stop style="stop-color:#2e3436;stop-opacity:1" offset="0" id="stop4345"/>
      <stop style="stop-color:#2e3436;stop-opacity:0" offset="1" id="stop4347"/>
    </linearGradient>
    <linearGradient id="linearGradient5504">
      <stop style="stop-color:#eeeeec;stop-opacity:1" offset="0" id="stop5506"/>
      <stop style="stop-color:#eeeeec;stop-opacity:0" offset="1" id="stop5508"/>
    </linearGradient>
    <linearGradient id="linearGradient2806">
      <stop style="stop-color:#d3d7cf;stop-opacity:1" offset="0" id="stop2808"/>
      <stop style="stop-color:#555753;stop-opacity:1" offset="1" id="stop2810"/>
    </linearGradient>
    <radialGradient cx="5.2731981" cy="2.4915621" r="24" fx="5.2731981" fy="2.4915621" id="radialGradient2812" xlink:href="#linearGradient2806" gradientUnits="userSpaceOnUse" gradientTransform="matrix(1.535736,-1.421183e-2,1.248853e-2,1.349515,5.048995,7.046852)"/>
    <radialGradient cx="15.576832" cy="14.456747" r="23" fx="15.576832" fy="14.456747" id="radialGradient5510" xlink:href="#linearGradient5504" gradientUnits="userSpaceOnUse" gradientTransform="matrix(1.5754,-1.194882e-2,1.114334e-2,1.469199,-7.468864,-4.513215)"/>
    <radialGradient cx="24.243662" cy="45.626141" r="23.738585" fx="24.243662" fy="45.626141" id="radialGradient4349" xlink:href="#linearGradient4343" gradientUnits="userSpaceOnUse" gradientTransform="matrix(1,0,0,7.87234e-2,0,42.0343)"/>
    <linearGradient x1="-28.128548" y1="34.637081" x2="15.779508" y2="34.637081" id="linearGradient23962" xlink:href="#linearGradient16837" gradientUnits="userSpaceOnUse" gradientTransform="translate(47.209002,-0.119841)"/>
    <linearGradient x1="-28.128548" y1="34.637081" x2="15.779508" y2="34.637081" id="linearGradient23960" xlink:href="#linearGradient16837" gradientUnits="userSpaceOnUse" gradientTransform="translate(47.310344,-4.1379304e-8)"/>
    <linearGradient x1="-28.128548" y1="34.637081" x2="15.779508" y2="34.637081" id="linearGradient23958" xlink:href="#linearGradient16837" gradientUnits="userSpaceOnUse" gradientTransform="translate(20.657279,0.6042969)"/>
    <filter id="filter23926">
      <feGaussianBlur inkscape:collect="always" stdDeviation="0.84094198" id="feGaussianBlur23928"/>
    </filter>
    <linearGradient x1="-28.128548" y1="34.637081" x2="15.779508" y2="34.637081" id="linearGradient22955" xlink:href="#linearGradient16837" gradientUnits="userSpaceOnUse" gradientTransform="translate(47.209002,-0.119841)"/>
    <filter id="filter22949">
      <feGaussianBlur inkscape:collect="always" stdDeviation="1.7303666" id="feGaussianBlur22951"/>
    </filter>
    <linearGradient x1="-28.128548" y1="34.637081" x2="15.779508" y2="34.637081" id="linearGradient18759" xlink:href="#linearGradient16837" gradientUnits="userSpaceOnUse" gradientTransform="translate(47.310344,-4.1379303e-8)"/>
    <linearGradient x1="-28.128548" y1="34.637081" x2="15.779508" y2="34.637081" id="linearGradient17343" xlink:href="#linearGradient16837" gradientUnits="userSpaceOnUse" gradientTransform="translate(20.657279,0.6042969)"/>
    <linearGradient x1="-28.128548" y1="34.637081" x2="15.779508" y2="34.637081" id="linearGradient16843" xlink:href="#linearGradient16837" gradientUnits="userSpaceOnUse" gradientTransform="translate(20.517241,0.9655172)"/>
    <linearGradient id="linearGradient16837">
      <stop style="stop-color:#830000;stop-opacity:1" offset="0" id="stop16839"/>
      <stop style="stop-color:#830000;stop-opacity:0" offset="1" id="stop16841"/>
    </linearGradient>
    <linearGradient id="linearGradient2933">
      <stop style="stop-color:#9cbcde;stop-opacity:1" offset="0" id="stop2935"/>
      <stop style="stop-color:#204a87;stop-opacity:1" offset="1" id="stop2937"/>
    </linearGradient>
    <linearGradient id="linearGradient2431">
      <stop style="stop-color:#ffffff;stop-opacity:1" offset="0" id="stop2433"/>
      <stop style="stop-color:#b8b8b8;stop-opacity:1" offset="1" id="stop2435"/>
    </linearGradient>
    <linearGradient x1="25.249994" y1="23.568451" x2="25.249994" y2="19.168869" id="linearGradient3095" xlink:href="#linearGradient3085" gradientUnits="userSpaceOnUse" gradientTransform="translate(0,13.11256)"/>
    <linearGradient x1="25.249994" y1="23.568451" x2="25.249994" y2="19.168869" id="linearGradient3091" xlink:href="#linearGradient3085" gradientUnits="userSpaceOnUse"/>
    <linearGradient x1="14.68055" y1="7.2187386" x2="38.694427" y2="57.468739" id="linearGradient2374" xlink:href="#linearGradient2368" gradientUnits="userSpaceOnUse"/>
    <radialGradient cx="25.357143" cy="36.5" r="14.714286" fx="25.357143" fy="36.5" id="radialGradient2188" xlink:href="#linearGradient2182" gradientUnits="userSpaceOnUse" gradientTransform="matrix(1,0,0,0.5,0,18.25)"/>
    <linearGradient id="linearGradient2182">
      <stop style="stop-color:#000000;stop-opacity:1" offset="0" id="stop2184"/>
      <stop style="stop-color:#000000;stop-opacity:0" offset="1" id="stop2186"/>
    </linearGradient>
    <linearGradient id="linearGradient2368">
      <stop style="stop-color:#ffffff;stop-opacity:1" offset="0" id="stop2370"/>
      <stop style="stop-color:#ffffff;stop-opacity:0" offset="1" id="stop2372"/>
    </linearGradient>
    <linearGradient id="linearGradient3085">
      <stop style="stop-color:#b47002;stop-opacity:1" offset="0" id="stop3087"/>
      <stop style="stop-color:#6b4301;stop-opacity:1" offset="1" id="stop3089"/>
    </linearGradient>
    <linearGradient x1="302.85715" y1="366.64789" x2="302.85715" y2="609.50507" id="linearGradient5027" xlink:href="#linearGradient5048" gradientUnits="userSpaceOnUse" gradientTransform="matrix(2.774389,0,0,1.969706,-1892.179,-872.8854)"/>
    <linearGradient id="linearGradient5048">
      <stop style="stop-color:#000000;stop-opacity:0" offset="0" id="stop5050"/>
      <stop style="stop-color:#000000;stop-opacity:1" offset="0.5" id="stop5056"/>
      <stop style="stop-color:#000000;stop-opacity:0" offset="1" id="stop5052"/>
    </linearGradient>
    <radialGradient cx="605.71429" cy="486.64789" r="117.14286" fx="605.71429" fy="486.64789" id="radialGradient5029" xlink:href="#linearGradient5060" gradientUnits="userSpaceOnUse" gradientTransform="matrix(2.774389,0,0,1.969706,-1891.633,-872.8854)"/>
    <linearGradient id="linearGradient5060">
      <stop style="stop-color:#000000;stop-opacity:1" offset="0" id="stop5062"/>
      <stop style="stop-color:#000000;stop-opacity:0" offset="1" id="stop5064"/>
    </linearGradient>
    <radialGradient cx="605.71429" cy="486.64789" r="117.14286" fx="605.71429" fy="486.64789" id="radialGradient5031" xlink:href="#linearGradient5060" gradientUnits="userSpaceOnUse" gradientTransform="matrix(-2.774389,0,0,1.969706,112.7623,-872.8854)"/>
    <radialGradient cx="23.5625" cy="40.4375" r="19.5625" fx="23.5625" fy="40.4375" id="radialGradient3010" xlink:href="#linearGradient2865" gradientUnits="userSpaceOnUse" gradientTransform="matrix(1,0,0,0.348243,0,26.35543)"/>
    <linearGradient x1="25.71875" y1="31.046875" x2="25.514589" y2="30.703125" id="linearGradient3000" xlink:href="#linearGradient2994" gradientUnits="userSpaceOnUse" gradientTransform="translate(-5.825542,0.125)"/>
    <radialGradient cx="29.053354" cy="27.640751" r="3.2408545" fx="29.053354" fy="27.640751" id="radialGradient2990" xlink:href="#linearGradient2984" gradientUnits="userSpaceOnUse" gradientTransform="matrix(2.923565,0,0,2.029717,-61.55532,-27.88417)"/>
    <linearGradient x1="46" y1="19.8125" x2="47.6875" y2="22.625" id="linearGradient2980" xlink:href="#linearGradient2974" gradientUnits="userSpaceOnUse" gradientTransform="translate(-5.669292,0)"/>
    <linearGradient x1="48.90625" y1="17.376184" x2="50.988335" y2="22.250591" id="linearGradient2972" xlink:href="#linearGradient2966" gradientUnits="userSpaceOnUse" gradientTransform="translate(-5.669292,0)"/>
    <linearGradient x1="6" y1="7.5625" x2="40.984375" y2="7.5625" id="linearGradient2925" xlink:href="#linearGradient2919" gradientUnits="userSpaceOnUse"/>
    <linearGradient x1="26.612417" y1="28.083368" x2="26.228401" y2="42.83337" id="linearGradient2879" xlink:href="#linearGradient2873" gradientUnits="userSpaceOnUse"/>
    <radialGradient cx="23.5625" cy="40.4375" r="19.5625" fx="23.5625" fy="40.4375" id="radialGradient2871" xlink:href="#linearGradient2865" gradientUnits="userSpaceOnUse" gradientTransform="matrix(1,0,0,0.348243,0,26.35543)"/>
    <linearGradient x1="21.043484" y1="42.83337" x2="14.283642" y2="6.8333683" id="linearGradient2861" xlink:href="#linearGradient2855" gradientUnits="userSpaceOnUse" gradientTransform="matrix(1.137871,0,0,1,-2.660884,0)"/>
    <linearGradient id="linearGradient2855">
      <stop style="stop-color:#dfdfdf;stop-opacity:1" offset="0" id="stop2857"/>
      <stop style="stop-color:#ffffff;stop-opacity:1" offset="1" id="stop2859"/>
    </linearGradient>
    <linearGradient id="linearGradient2865">
      <stop style="stop-color:#000000;stop-opacity:1" offset="0" id="stop2867"/>
      <stop style="stop-color:#000000;stop-opacity:0" offset="1" id="stop2869"/>
    </linearGradient>
    <linearGradient id="linearGradient2873">
      <stop style="stop-color:#939393;stop-opacity:1" offset="0" id="stop2875"/>
      <stop style="stop-color:#424242;stop-opacity:1" offset="1" id="stop2877"/>
    </linearGradient>
    <linearGradient id="linearGradient2919">
      <stop style="stop-color:#a3a4a0;stop-opacity:1" offset="0" id="stop2921"/>
      <stop style="stop-color:#888a85;stop-opacity:1" offset="1" id="stop2923"/>
    </linearGradient>
    <linearGradient id="linearGradient2966">
      <stop style="stop-color:#ffd1d1;stop-opacity:1" offset="0" id="stop2968"/>
      <stop style="stop-color:#ff1d1d;stop-opacity:1" offset="0.5" id="stop3006"/>
      <stop style="stop-color:#6f0000;stop-opacity:1" offset="1" id="stop2970"/>
    </linearGradient>
    <linearGradient id="linearGradient2974">
      <stop style="stop-color:#c1c1c1;stop-opacity:1" offset="0" id="stop2976"/>
      <stop style="stop-color:#acacac;stop-opacity:1" offset="1" id="stop2978"/>
    </linearGradient>
    <linearGradient id="linearGradient2984">
      <stop style="stop-color:#e7e2b8;stop-opacity:1" offset="0" id="stop2986"/>
      <stop style="stop-color:#e7e2b8;stop-opacity:0" offset="1" id="stop2988"/>
    </linearGradient>
    <linearGradient id="linearGradient2994">
      <stop style="stop-color:#000000;stop-opacity:1" offset="0" id="stop2996"/>
      <stop style="stop-color:#c9c9c9;stop-opacity:1" offset="1" id="stop2998"/>
    </linearGradient>
    <linearGradient x1="302.85715" y1="366.64789" x2="302.85715" y2="609.50507" id="linearGradient6715" xlink:href="#linearGradient5048" gradientUnits="userSpaceOnUse" gradientTransform="matrix(2.774389,0,0,1.969706,-1892.179,-872.8854)"/>
    <linearGradient id="linearGradient2635">
      <stop style="stop-color:#000000;stop-opacity:0" offset="0" id="stop2637"/>
      <stop style="stop-color:#000000;stop-opacity:1" offset="0.5" id="stop2639"/>
      <stop style="stop-color:#000000;stop-opacity:0" offset="1" id="stop2641"/>
    </linearGradient>
    <radialGradient cx="605.71429" cy="486.64789" r="117.14286" fx="605.71429" fy="486.64789" id="radialGradient6717" xlink:href="#linearGradient5060" gradientUnits="userSpaceOnUse" gradientTransform="matrix(2.774389,0,0,1.969706,-1891.633,-872.8854)"/>
    <radialGradient cx="605.71429" cy="486.64789" r="117.14286" fx="605.71429" fy="486.64789" id="radialGradient6719" xlink:href="#linearGradient5060" gradientUnits="userSpaceOnUse" gradientTransform="matrix(-2.774389,0,0,1.969706,112.7623,-872.8854)"/>
    <radialGradient cx="24.8125" cy="39.125" r="17.6875" fx="24.8125" fy="39.125" id="radialGradient2260" xlink:href="#linearGradient3041" gradientUnits="userSpaceOnUse" gradientTransform="matrix(1,0,0,0.374558,0,24.47041)"/>
    <linearGradient x1="31.177404" y1="19.821514" x2="40.859177" y2="9.6568537" id="linearGradient2256" xlink:href="#linearGradient2250" gradientUnits="userSpaceOnUse"/>
    <linearGradient x1="14.017542" y1="36.942543" x2="15.415793" y2="38.268368" id="linearGradient2271" xlink:href="#linearGradient2265" gradientUnits="userSpaceOnUse" gradientTransform="matrix(0.878099,-1.73237e-2,1.73237e-2,0.878099,2.163687,4.067899)"/>
    <linearGradient x1="12.004697" y1="35.688461" x2="10.650805" y2="33.194965" id="linearGradient2263" xlink:href="#linearGradient2257" gradientUnits="userSpaceOnUse" gradientTransform="matrix(1.007254,-2.636526e-2,2.636526e-2,1.007254,1.593411,7.9191e-2)"/>
    <linearGradient x1="9.7503242" y1="32.28376" x2="16.915297" y2="39.443218" id="linearGradient3093" xlink:href="#linearGradient3087" gradientUnits="userSpaceOnUse" gradientTransform="matrix(0.87827,0,0,0.87827,2.536988,4.967681)"/>
    <linearGradient x1="38.227654" y1="13.602527" x2="37.53537" y2="6.6285896" id="linearGradient3083" xlink:href="#linearGradient3077" gradientUnits="userSpaceOnUse" gradientTransform="matrix(0.87827,0,0,0.87827,2.847503,5.588712)"/>
    <linearGradient x1="50.152931" y1="-3.6324477" x2="25.291086" y2="-4.3002653" id="linearGradient3067" xlink:href="#linearGradient3061" gradientUnits="userSpaceOnUse" gradientTransform="matrix(0.87827,0,0,0.87827,5.328299,1.650243)"/>
    <linearGradient x1="19.648342" y1="42.253601" x2="20.631224" y2="6.7758031" id="linearGradient3055" xlink:href="#linearGradient3049" gradientUnits="userSpaceOnUse" gradientTransform="matrix(0.87827,0,0,0.87827,2.536988,4.967681)"/>
    <radialGradient cx="24.8125" cy="39.125" r="17.6875" fx="24.8125" fy="39.125" id="radialGradient3047" xlink:href="#linearGradient3041" gradientUnits="userSpaceOnUse" gradientTransform="matrix(1,0,0,0.374558,0,24.47041)"/>
    <linearGradient id="linearGradient3041">
      <stop style="stop-color:#000000;stop-opacity:1" offset="0" id="stop3043"/>
      <stop style="stop-color:#000000;stop-opacity:0" offset="1" id="stop3045"/>
    </linearGradient>
    <linearGradient id="linearGradient3049">
      <stop style="stop-color:#b6b6b6;stop-opacity:1" offset="0" id="stop3051"/>
      <stop style="stop-color:#f2f2f2;stop-opacity:1" offset="0.5" id="stop2262"/>
      <stop style="stop-color:#fafafa;stop-opacity:1" offset="0.67612958" id="stop2264"/>
      <stop style="stop-color:#d8d8d8;stop-opacity:1" offset="0.84051722" id="stop2268"/>
      <stop style="stop-color:#f2f2f2;stop-opacity:1" offset="0.875" id="stop2266"/>
      <stop style="stop-color:#dbdbdb;stop-opacity:1" offset="1" id="stop3053"/>
    </linearGradient>
    <linearGradient id="linearGradient3061">
      <stop style="stop-color:#ffffff;stop-opacity:1" offset="0" id="stop3063"/>
      <stop style="stop-color:#000000;stop-opacity:1" offset="1" id="stop3065"/>
    </linearGradient>
    <linearGradient id="linearGradient3077">
      <stop style="stop-color:#98a0a9;stop-opacity:1" offset="0" id="stop3079"/>
      <stop style="stop-color:#c3d0dd;stop-opacity:1" offset="1" id="stop3081"/>
    </linearGradient>
    <linearGradient id="linearGradient3087">
      <stop style="stop-color:#3465a4;stop-opacity:1" offset="0" id="stop2473"/>
      <stop style="stop-color:#9fbce1;stop-opacity:1" offset="0" id="stop3095"/>
      <stop style="stop-color:#6b95ca;stop-opacity:1" offset="0" id="stop2242"/>
      <stop style="stop-color:#3d6aa5;stop-opacity:1" offset="0.75" id="stop2244"/>
      <stop style="stop-color:#386eb4;stop-opacity:1" offset="1" id="stop3091"/>
    </linearGradient>
    <linearGradient id="linearGradient2257">
      <stop style="stop-color:#ffffff;stop-opacity:1" offset="0" id="stop2259"/>
      <stop style="stop-color:#ffffff;stop-opacity:0" offset="1" id="stop2261"/>
    </linearGradient>
    <linearGradient id="linearGradient2265">
      <stop style="stop-color:#000000;stop-opacity:1" offset="0" id="stop2267"/>
      <stop style="stop-color:#000000;stop-opacity:0" offset="1" id="stop2269"/>
    </linearGradient>
    <linearGradient id="linearGradient2250">
      <stop style="stop-color:#ffffff;stop-opacity:1" offset="0" id="stop2252"/>
      <stop style="stop-color:#ffffff;stop-opacity:0" offset="1" id="stop2254"/>
    </linearGradient>
  </defs>
  <g transform="matrix(0.9418046,0,0,0.9929887,1.886059,-1.8585011)" id="layer1">
    <path d="M 42.5 39.125 A 17.6875 6.625 0 1 1  7.125,39.125 A 17.6875 6.625 0 1 1  42.5 39.125 z" transform="matrix(0.751118,0,0,0.578703,17.04087,19.36341)" style="opacity:0.19886367;color:#000000;fill:url(#radialGradient2260);fill-opacity:1;fill-rule:nonzero;stroke:none;stroke-width:1;stroke-linecap:butt;stroke-linejoin:miter;marker:none;marker-start:none;marker-mid:none;marker-end:none;stroke-miterlimit:4;stroke-dasharray:none;stroke-dashoffset:0;stroke-opacity:1;visibility:visible;display:inline;overflow:visible" id="path2258"/>
    <path d="M 42.5 39.125 A 17.6875 6.625 0 1 1  7.125,39.125 A 17.6875 6.625 0 1 1  42.5 39.125 z" transform="matrix(0.836071,0,0,0.685436,-7.959607,15.71781)" style="opacity:0.3125;color:#000000;fill:url(#radialGradient3047);fill-opacity:1;fill-rule:nonzero;stroke:none;stroke-width:1;stroke-linecap:butt;stroke-linejoin:miter;marker:none;marker-start:none;marker-mid:none;marker-end:none;stroke-miterlimit:4;stroke-dasharray:none;stroke-dashoffset:0;stroke-opacity:1;visibility:visible;display:inline;overflow:visible" id="path3039"/>
    <path d="M 17.906713,21.215676 L 36.899302,40.6474 C 37.667788,41.52567 40.102812,42.204461 41.729787,40.6474 C 43.300913,39.143787 42.937408,37.024536 41.400436,35.487563 L 23.176333,15.946056 C 25.426333,9.696056 20.872444,4.446488 14.997444,5.571488 L 13.73493,6.7242174 L 17.687145,10.456865 L 17.906713,13.750381 L 14.955871,16.443984 L 11.429472,16.05584 L 7.8066086,12.652544 C 7.8066086,12.652544 6.5364873,13.907448 6.5364873,13.907448 C 5.9457238,19.548765 11.844213,24.590676 17.906713,21.215676 z " style="opacity:1;color:#000000;fill:url(#linearGradient3055);fill-opacity:1;fill-rule:nonzero;stroke:#888a85;stroke-width:0.9999997;stroke-linecap:butt;stroke-linejoin:miter;marker:none;marker-start:none;marker-mid:none;marker-end:none;stroke-miterlimit:4;stroke-dasharray:none;stroke-dashoffset:0;stroke-opacity:1;visibility:visible;display:inline;overflow:visible" id="path2140"/>
    <path d="M 18.117385,19.9401 L 37.320267,39.967712 C 37.915174,40.647605 39.800194,41.173077 41.059681,39.967712 C 42.275934,38.803723 41.994534,37.163152 40.804721,35.973338 L 22.313189,16.352183 C 23.813189,9.852183 20.454401,6.3475455 15.454401,6.4725455 L 15.18427,6.7459223 L 18.787193,9.982189 L 18.917359,14.163983 L 15.303442,17.462466 L 11.061136,17.004257 L 7.8845536,14.012776 L 7.5319165,14.442835 C 7.2194165,20.411585 14.023635,23.1276 18.117385,19.9401 z " style="opacity:0.42613639;color:#000000;fill:none;fill-opacity:1;fill-rule:nonzero;stroke:#ffffff;stroke-width:0.99999917;stroke-linecap:butt;stroke-linejoin:miter;marker:none;marker-start:none;marker-mid:none;marker-end:none;stroke-miterlimit:4;stroke-dasharray:none;stroke-dashoffset:0;stroke-opacity:1;visibility:visible;display:inline;overflow:visible" id="path3057"/>
    <rect width="23.268276" height="2.0554912" rx="0.88388073" ry="0.88388073" x="28.185335" y="-2.6184492" transform="matrix(0.697938,0.716158,-0.716158,0.697938,0,0)" style="opacity:0.17045456;color:#000000;fill:none;fill-opacity:1;fill-rule:nonzero;stroke:url(#linearGradient3067);stroke-width:0.9999972;stroke-linecap:butt;stroke-linejoin:miter;marker:none;marker-start:none;marker-mid:none;marker-end:none;stroke-miterlimit:4;stroke-dasharray:none;stroke-dashoffset:0;stroke-opacity:1;visibility:visible;display:inline;overflow:visible" id="rect3059"/>
    <path d="M 22.498794,30.12538 C 23.332335,29.410917 35.782628,16.676871 35.782628,16.676871 L 38.856573,16.457303 L 43.687058,9.7604906 L 39.662731,6.1752987 L 33.405057,11.554705 L 33.405057,14.628651 L 20.670142,27.857593 C 20.066332,28.461403 21.730308,30.784082 22.498794,30.12538 z " style="opacity:1;color:#000000;fill:url(#linearGradient3083);fill-opacity:1;fill-rule:nonzero;stroke:#878f9d;stroke-width:0.9999997;stroke-linecap:butt;stroke-linejoin:miter;marker:none;marker-start:none;marker-mid:none;marker-end:none;stroke-miterlimit:4;stroke-dasharray:none;stroke-dashoffset:0;stroke-opacity:1;visibility:visible;display:inline;overflow:visible" id="path2144"/>
    <path d="M 22.401987,29.085455 C 23.04876,28.531078 35.426388,15.855648 35.426388,15.855648 L 38.354971,15.607649 L 42.568887,9.945584 L 39.679156,7.3965946 L 34.202578,12.114067 L 34.357836,14.965022 L 21.681731,28.257345 C 21.213213,28.725863 21.805692,29.596565 22.401987,29.085455 z " style="opacity:0.53977272;color:#000000;fill:none;fill-opacity:1;fill-rule:nonzero;stroke:url(#linearGradient2256);stroke-width:1.00000024;stroke-linecap:butt;stroke-linejoin:miter;marker:none;marker-start:none;marker-mid:none;marker-end:none;stroke-miterlimit:4;stroke-dasharray:none;stroke-dashoffset:0;stroke-opacity:1;visibility:visible;display:inline;overflow:visible" id="path3085"/>
    <path d="M 8.4653111,43.611561 C 9.7818986,45.07679 13.438996,45.739726 15.060755,42.901647 C 15.767862,41.664211 17.154698,38.198845 23.341883,32.630379 C 24.381029,31.696208 25.481792,29.559241 24.54863,28.406512 L 22.133387,25.991269 C 21.145334,24.893432 18.398973,25.40552 17.272212,26.942145 C 13.913455,31.538339 8.4261393,35.197025 7.1887023,35.638967 C 4.8207828,36.484652 5.0872917,39.975116 6.6538792,41.635454 L 8.4653111,43.611561 z " style="color:#000000;fill:url(#linearGradient3093);fill-opacity:1;fill-rule:nonzero;stroke:#204a87;stroke-width:0.9999997;stroke-linecap:butt;stroke-linejoin:miter;marker:none;marker-start:none;marker-mid:none;marker-end:none;stroke-miterlimit:4;stroke-dashoffset:0;stroke-opacity:1;visibility:visible;display:inline;overflow:visible" id="path2142"/>
    <path d="M 43.25 37.5 A 1.375 1.375 0 1 1  40.5,37.5 A 1.375 1.375 0 1 1  43.25 37.5 z" transform="matrix(0.87827,0,0,0.87827,2.427204,5.077464)" style="opacity:1;color:#000000;fill:#ffffff;fill-opacity:1;fill-rule:nonzero;stroke:#a1a1a1;stroke-width:1.13860166;stroke-linecap:butt;stroke-linejoin:miter;marker:none;marker-start:none;marker-mid:none;marker-end:none;stroke-miterlimit:4;stroke-dasharray:none;stroke-dashoffset:0;stroke-opacity:1;visibility:visible;display:inline;overflow:visible" id="path2146"/>
    <path d="M 20.771261 28.20101 A 1.767767 1.767767 0 1 1  17.235727,28.20101 A 1.767767 1.767767 0 1 1  20.771261 28.20101 z" transform="matrix(0.570876,0,0,0.570876,9.154848,11.25111)" style="opacity:0.60227272;color:#000000;fill:#ffffff;fill-opacity:1;fill-rule:nonzero;stroke:none;stroke-width:1;stroke-linecap:butt;stroke-linejoin:miter;marker:none;marker-start:none;marker-mid:none;marker-end:none;stroke-miterlimit:4;stroke-dasharray:none;stroke-dashoffset:0;stroke-opacity:1;visibility:visible;display:inline;overflow:visible" id="path3101"/>
    <path d="M 18.678905,29.624807 C 18.678905,29.624807 11.509014,36.92442 8.1502573,38.161857" style="opacity:1;color:#000000;fill:none;fill-opacity:1;fill-rule:nonzero;stroke:url(#linearGradient2263);stroke-width:2.29450917;stroke-linecap:round;stroke-linejoin:round;marker:none;marker-start:none;marker-mid:none;marker-end:none;stroke-miterlimit:4;stroke-dasharray:none;stroke-dashoffset:0;stroke-opacity:1;visibility:visible;display:inline;overflow:visible" id="path3103"/>
    <path d="M 8.8060013,42.48669 C 10.247267,44.232307 13.405535,44.647919 14.397161,42.116101 C 15.078468,40.376589 17.730783,36.450314 22.594745,32.072748 C 23.411654,31.338363 24.277003,29.658419 23.543411,28.752218 L 21.644704,26.853511 C 20.867961,25.990463 18.708951,26.393033 17.823164,27.601028 C 15.182728,31.214257 9.3398194,35.940582 7.9274145,36.406654 C 5.7406198,37.128264 6.1504221,39.627953 7.3819713,40.933203 L 8.8060013,42.48669 z " style="opacity:0.19886367;color:#000000;fill:none;fill-opacity:1;fill-rule:nonzero;stroke:#ffffff;stroke-width:0.99999946;stroke-linecap:butt;stroke-linejoin:miter;marker:none;marker-start:none;marker-mid:none;marker-end:none;stroke-miterlimit:4;stroke-dasharray:none;stroke-dashoffset:0;stroke-opacity:1;visibility:visible;display:inline;overflow:visible" id="path2270"/>
    <path d="M 20.824602,31.261024 C 20.824602,31.261024 13.501839,37.878429 11.910849,42.121069" style="opacity:0.27840911;color:#000000;fill:none;fill-opacity:1;fill-rule:nonzero;stroke:url(#linearGradient2271);stroke-width:2.29450917;stroke-linecap:round;stroke-linejoin:round;marker:none;marker-start:none;marker-mid:none;marker-end:none;stroke-miterlimit:4;stroke-dashoffset:0;stroke-opacity:1;visibility:visible;display:inline;overflow:visible" id="path2247"/>
  </g>
  <g transform="matrix(0.5541257,0,0,0.5588143,-0.825321,-0.1431658)" id="g23930">
    <path d="M 29.375,0.28125 C 28.102103,0.3649462 27.19036,0.66296531 26.8125,1.21875 C 21.42803,15.481257 14.693639,34.678782 19.03125,45.8125 C 23.30836,56.790927 22.212627,60.814566 19.53125,67.28125 C 15.12592,77.9056 10.006399,70.959231 2.40625,73.3125 C -5.3428301,75.711882 38.921067,91.52207 33.28125,84.25 C 27.455426,76.738091 19.97962,78.175374 22.65625,67.8125 C 25.516537,56.738587 26.630107,58.503996 36.90625,50.4375 C 47.42111,42.183617 49.312423,23.876037 54.03125,10.21875 C 53.631317,5.5825943 36.248645,-0.1707095 29.375,0.28125 z M 29.9375,2.15625 C 35.935385,1.8655695 53.047474,7.9445948 52.09375,11.1875 C 47.566036,24.291666 44.719193,42.892821 34.3125,50.34375 C 29.495544,53.792568 22.601138,50.398337 20.40625,45.8125 C 16.244311,35.129697 22.7711,16.716126 27.9375,3.03125 C 28.100316,2.4826998 28.826781,2.2100797 29.9375,2.15625 z " style="opacity:1;fill:#0a0000;fill-opacity:1;fill-rule:evenodd;stroke:none;stroke-width:1px;stroke-linecap:butt;stroke-linejoin:miter;stroke-opacity:1;filter:url(#filter17327)" id="path17048"/>
    <path d="M 20.926735,45.656177 C 23.121623,50.242013 29.794442,53.351015 34.806492,50.192415 C 42.799392,45.15528 46.633208,32.337272 50.195406,19.715865 C 48.346783,17.311385 44.321959,15.129119 36.032026,19.943794 C 27.37856,24.969602 26.07073,19.707848 23.135927,17.842519 C 18.935044,30.561877 18.213073,39.318202 20.926735,45.656177 z " style="fill:url(#linearGradient23958);fill-opacity:1;fill-rule:evenodd;stroke:#000000;stroke-width:1px;stroke-linecap:butt;stroke-linejoin:miter;stroke-opacity:1;filter:url(#filter17361)" id="path17341"/>
    <path d="M 20.786698,46.017397 C 22.981586,50.603233 29.654405,53.712235 34.666455,50.553635 C 42.659355,45.5165 46.493171,32.698492 50.055369,20.077085 C 48.206746,17.672605 44.181922,15.490339 35.891989,20.305014 C 27.238523,25.330822 25.930693,20.069068 22.99589,18.203739 C 18.795007,30.923097 18.073036,39.679422 20.786698,46.017397 z " style="fill:url(#linearGradient23960);fill-opacity:1;fill-rule:evenodd;stroke:#000000;stroke-width:1px;stroke-linecap:butt;stroke-linejoin:miter;stroke-opacity:1" id="path14897"/>
    <path d="M 20.685356,45.897556 C 22.880244,50.483392 29.553063,53.592394 34.565113,50.433794 C 42.558013,45.396659 46.391829,32.578651 49.954027,19.957244 C 48.105404,17.552764 44.08058,15.370498 35.790647,20.185173 C 27.137181,25.210981 25.829351,19.949227 22.894548,18.083898 C 18.693665,30.803256 17.971694,39.559581 20.685356,45.897556 z " style="fill:url(#linearGradient23962);fill-opacity:1;fill-rule:evenodd;stroke:#000000;stroke-width:1px;stroke-linecap:butt;stroke-linejoin:miter;stroke-opacity:1;filter:url(#filter23926)" id="path22953"/>
    <path d="M 29.37158,0.28649562 C 28.098683,0.37019162 27.18694,0.66821162 26.80908,1.2239956 C 21.42461,15.486503 14.690219,34.684028 19.02783,45.817746 C 23.30494,56.796173 22.209207,60.819812 19.52783,67.286496 C 15.1225,77.910846 10.002979,70.964477 2.40283,73.317746 C -5.3462499,75.717128 38.917647,91.527319 33.27783,84.255246 C 27.452006,76.743337 19.9762,78.18062 22.65283,67.817746 C 25.513117,56.743833 26.626687,58.509242 36.90283,50.442746 C 47.41769,42.188863 49.309003,23.881283 54.02783,10.223996 C 53.627897,5.5878406 36.245225,-0.16546338 29.37158,0.28649562 z M 29.93408,2.1614956 C 35.931965,1.8708156 53.044054,7.9498406 52.09033,11.192746 C 47.562616,24.296912 44.715773,42.898067 34.30908,50.348996 C 29.492124,53.797814 22.597718,50.403583 20.40283,45.817746 C 16.240891,35.134943 22.76768,16.721372 27.93408,3.0364956 C 28.096896,2.4879456 28.823361,2.2153256 29.93408,2.1614956 z " style="opacity:1;fill:#000000;fill-opacity:1;fill-rule:evenodd;stroke:none;stroke-width:1px;stroke-linecap:butt;stroke-linejoin:miter;stroke-opacity:1;filter:url(#filter22949)" id="path20995"/>
  </g>
</svg>