/* XPM */
static char * mutt_xpm[] = {
"32 32 14 1",
" 	c None",
".	c #CCCCCC",
"+	c #000000",
"@	c #7F7F7F",
"#	c #B2B2B2",
"$	c #666667",
"%	c #FF0000",
"&	c #7F0000",
"*	c #999999",
"=	c #333333",
"-	c #FF00FF",
";	c #FFFFFF",
">	c #7F007F",
",	c #7F7F00",
"                                ",
"                      ==        ",
"                    ++          ",
"                   +..@@        ",
"                  +.,.+         ",
"       +          +.,.+  +++    ",
"      +          @+.,.+ +@@     ",
"    @+           +....+++.@     ",
"    +.@         @+.......+      ",
"    +.+         +@....+.+       ",
"    +.+        @+.....+.+       ",
"    +.+@       +@........++++   ",
"    +.@+      @+.........+;;>   ",
"    +..+++++++%@$#.......+.--   ",
"    @@.@+&%&+@%%@@.......+>->   ",
"     +..@+++@.@%%@$@......+++   ",
"     +.........@%%+@$$....+     ",
"    @@$.........@%%++@$..$+     ",
"    +@@..........*%%++@@$+      ",
"    +@@...........@%%++++       ",
"    +@$............@+           ",
"    +@@...#.......@+            ",
"    @+@.#$+@@@...$++            ",
"     +..$+@*@+..$+@+            ",
"    @@.@++++++$.+@*+            ",
"   @+..+*@@+=+@.+@.+            ",
"   +@..+++@+++@..++@@+@         ",
"   +@.....+@@+@.....+@.@        ",
"   +$.....+@*+$.....+@.+        ",
"   +@@.$..+@@+@@.$..+@.+        ",
"   @++++++@++@++++++@++@        ",
"                                "};
